<?xml version="1.0" standalone="no"?>
<svg xmlns:xlink="http://www.w3.org/1999/xlink" id="wave" style="transform:rotate(0deg); transition: 0.3s" viewBox="0 0 1440 250" version="1.1" xmlns="http://www.w3.org/2000/svg"><defs><linearGradient id="sw-gradient-0" x1="0" x2="0" y1="1" y2="0"><stop stop-color="rgba(243, 106, 62, 1)" offset="0%"/><stop stop-color="rgba(85.216, 11, 255, 1)" offset="100%"/></linearGradient></defs><path style="transform:translate(0, 0px); opacity:1" fill="url(#sw-gradient-0)" d="M0,75L120,83.3C240,92,480,108,720,133.3C960,158,1200,192,1440,204.2C1680,217,1920,208,2160,170.8C2400,133,2640,67,2880,70.8C3120,75,3360,150,3600,166.7C3840,183,4080,142,4320,125C4560,108,4800,117,5040,116.7C5280,117,5520,108,5760,112.5C6000,117,6240,133,6480,150C6720,167,6960,183,7200,162.5C7440,142,7680,83,7920,79.2C8160,75,8400,125,8640,125C8880,125,9120,75,9360,45.8C9600,17,9840,8,10080,25C10320,42,10560,83,10800,120.8C11040,158,11280,192,11520,200C11760,208,12000,192,12240,166.7C12480,142,12720,108,12960,87.5C13200,67,13440,58,13680,58.3C13920,58,14160,67,14400,75C14640,83,14880,92,15120,104.2C15360,117,15600,133,15840,125C16080,117,16320,83,16560,70.8C16800,58,17040,67,17160,70.8L17280,75L17280,250L17160,250C17040,250,16800,250,16560,250C16320,250,16080,250,15840,250C15600,250,15360,250,15120,250C14880,250,14640,250,14400,250C14160,250,13920,250,13680,250C13440,250,13200,250,12960,250C12720,250,12480,250,12240,250C12000,250,11760,250,11520,250C11280,250,11040,250,10800,250C10560,250,10320,250,10080,250C9840,250,9600,250,9360,250C9120,250,8880,250,8640,250C8400,250,8160,250,7920,250C7680,250,7440,250,7200,250C6960,250,6720,250,6480,250C6240,250,6000,250,5760,250C5520,250,5280,250,5040,250C4800,250,4560,250,4320,250C4080,250,3840,250,3600,250C3360,250,3120,250,2880,250C2640,250,2400,250,2160,250C1920,250,1680,250,1440,250C1200,250,960,250,720,250C480,250,240,250,120,250L0,250Z"/><defs><linearGradient id="sw-gradient-1" x1="0" x2="0" y1="1" y2="0"><stop stop-color="rgba(163.941, 0, 255, 1)" offset="0%"/><stop stop-color="rgba(255, 179, 11, 1)" offset="100%"/></linearGradient></defs><path style="transform:translate(0, 50px); opacity:0.9" fill="url(#sw-gradient-1)" d="M0,125L120,104.2C240,83,480,42,720,37.5C960,33,1200,67,1440,75C1680,83,1920,67,2160,75C2400,83,2640,117,2880,129.2C3120,142,3360,133,3600,129.2C3840,125,4080,125,4320,120.8C4560,117,4800,108,5040,91.7C5280,75,5520,50,5760,70.8C6000,92,6240,158,6480,166.7C6720,175,6960,125,7200,125C7440,125,7680,175,7920,183.3C8160,192,8400,158,8640,120.8C8880,83,9120,42,9360,58.3C9600,75,9840,150,10080,150C10320,150,10560,75,10800,50C11040,25,11280,50,11520,79.2C11760,108,12000,142,12240,166.7C12480,192,12720,208,12960,187.5C13200,167,13440,108,13680,100C13920,92,14160,133,14400,150C14640,167,14880,158,15120,137.5C15360,117,15600,83,15840,91.7C16080,100,16320,150,16560,158.3C16800,167,17040,133,17160,116.7L17280,100L17280,250L17160,250C17040,250,16800,250,16560,250C16320,250,16080,250,15840,250C15600,250,15360,250,15120,250C14880,250,14640,250,14400,250C14160,250,13920,250,13680,250C13440,250,13200,250,12960,250C12720,250,12480,250,12240,250C12000,250,11760,250,11520,250C11280,250,11040,250,10800,250C10560,250,10320,250,10080,250C9840,250,9600,250,9360,250C9120,250,8880,250,8640,250C8400,250,8160,250,7920,250C7680,250,7440,250,7200,250C6960,250,6720,250,6480,250C6240,250,6000,250,5760,250C5520,250,5280,250,5040,250C4800,250,4560,250,4320,250C4080,250,3840,250,3600,250C3360,250,3120,250,2880,250C2640,250,2400,250,2160,250C1920,250,1680,250,1440,250C1200,250,960,250,720,250C480,250,240,250,120,250L0,250Z"/></svg>